<svg width="24" height="24" viewBox="0 0 48 48" fill="none" xmlns="http://www.w3.org/2000/svg">
<g clip-path="url(#clip0)">
<path d="M44.8805 20.4494C44.6628 19.9239 44.15 19.5812 43.5813 19.5812H28.6517L31.4149 1.62014C31.5073 1.01911 31.203 0.426799 30.6606 0.151924C30.1181 -0.123045 29.4606 -0.017951 29.0306 0.411987L3.4244 26.0181C3.02221 26.4203 2.90193 27.0252 3.11952 27.5506C3.33721 28.0761 3.85002 28.4188 4.41871 28.4188H19.3482L16.585 46.3799C16.4926 46.9809 16.7969 47.5732 17.3392 47.8481C17.8818 48.123 18.5393 48.018 18.9693 47.588L44.5755 21.9819C44.9778 21.5796 45.0981 20.9748 44.8805 20.4494V20.4494Z" fill="#467FFF"/>
</g>
<defs>
<clipPath id="clip0">
<rect width="48" height="48" fill="white"/>
</clipPath>
</defs>
</svg>
